<svg width="240" height="240" viewBox="0 0 240 240" fill="none" xmlns="http://www.w3.org/2000/svg">
<path d="M206.696 0H33.3044C14.9109 0 0 14.9109 0 33.3044V206.696C0 225.089 14.9109 240 33.3044 240H206.696C225.089 240 240 225.089 240 206.696V33.3044C240 14.9109 225.089 0 206.696 0Z" fill="white"/>
<path d="M33.3044 2H206.696C223.985 2 238 16.0155 238 33.3044V206.696C238 223.985 223.985 238 206.696 238H33.3044C16.0155 238 2 223.985 2 206.696V33.3044C2 16.0155 16.0155 2 33.3044 2Z" stroke="#1A1A1A" stroke-opacity="0.06" stroke-width="4"/>
<path d="M196.537 76H164.315L163.857 83.7016L174.515 86.366L154.74 138.987L133.051 86.366L142.792 83.7016L142.334 76H101.62L101.162 83.7016L109.03 86.366L113.235 96.0243L96.7489 137.78L75.6839 86.366L83.552 83.7016L83.0941 76H43.6284L43.0039 83.7016L51.2051 86.366L86.5494 168.711H94.8755L119.521 110.595L144.832 168.711H153.325L188.836 86.366L196.995 83.7016L196.537 76Z" fill="#1A1A1A"/>
</svg>
